<svg width="38" height="38" viewBox="0 0 38 38" fill="none" xmlns="http://www.w3.org/2000/svg">
<path d="M17.5019 18.9998L23.9509 12.5507C24.1702 12.3315 24.2823 12.0559 24.2874 11.724C24.2925 11.3922 24.1803 11.1116 23.9509 10.8822C23.7216 10.6528 23.4435 10.5381 23.1167 10.5381C22.7899 10.5381 22.5118 10.6528 22.2824 10.8822L15.1666 17.998C15.0184 18.1462 14.9138 18.3025 14.853 18.4669C14.792 18.6313 14.7616 18.809 14.7616 18.9998C14.7616 19.1906 14.792 19.3682 14.853 19.5326C14.9138 19.697 15.0184 19.8533 15.1666 20.0015L22.2824 27.1174C22.5016 27.3366 22.7772 27.4488 23.1091 27.4538C23.441 27.4589 23.7216 27.3468 23.9509 27.1174C24.1803 26.888 24.295 26.6099 24.295 26.2831C24.295 25.9563 24.1803 25.6782 23.9509 25.4489L17.5019 18.9998Z" fill="#3B4E5F"/>
</svg>
