<svg width="231" height="62" viewBox="0 0 231 62" fill="none" xmlns="http://www.w3.org/2000/svg">
<path fill-rule="evenodd" clip-rule="evenodd" d="M15.6848 5.72184V0C22.9879 0 28.9349 6.14695 28.9349 13.6956H23.3992C23.3992 9.29511 19.9422 5.72184 15.6848 5.72184ZM15.6733 8.4105H15.74C18.619 8.44497 20.92 10.9267 20.92 13.9025V42.0866H16.0624H15.6733H13.3946C6.01366 42.0866 0 35.8707 0 28.2416C0 20.6125 6.01366 14.3966 13.3946 14.3966V20.4172C9.22613 20.4172 5.82469 23.9215 5.82469 28.2416C5.82469 32.5502 9.21501 36.066 13.3946 36.066V36.089H15.6733V8.4105Z" fill="#FF0055"/>
<path d="M38.6902 32.4657C38.6902 30.6324 38.3421 29.1472 37.646 28.0102C36.9498 26.8499 36.0216 26.0028 34.8613 25.4691C33.701 24.9122 32.3898 24.6337 30.9278 24.6337C30.3013 24.6337 29.7327 24.6569 29.2222 24.7033C28.7349 24.7497 28.2708 24.8077 27.8298 24.8773V40.3325C28.3172 40.4486 28.8509 40.5298 29.4311 40.5762C30.0112 40.6226 30.5913 40.6458 31.1715 40.6458C33.5849 40.6458 35.4414 39.9612 36.7409 38.5921C38.0405 37.1997 38.6902 35.1576 38.6902 32.4657ZM42.4148 32.4657C42.4148 34.972 41.9507 37.0605 41.0224 38.7313C40.0942 40.3789 38.7831 41.6089 37.089 42.4211C35.4182 43.2333 33.4457 43.6394 31.1715 43.6394C30.4289 43.6394 29.5587 43.6046 28.5608 43.535C27.563 43.4653 26.6347 43.2913 25.7761 43.0128C24.7318 42.6647 24.2097 42.0498 24.2097 41.1679V23.6938C24.2097 23.2993 24.3141 22.9977 24.523 22.7888C24.755 22.5567 25.0683 22.3827 25.4628 22.2667C26.2518 22.0114 27.1221 21.849 28.0735 21.7793C29.0249 21.6865 29.9532 21.6401 30.8582 21.6401C33.1556 21.6401 35.1629 22.0462 36.8802 22.8584C38.6206 23.6474 39.9782 24.8425 40.9528 26.4437C41.9275 28.0218 42.4148 30.0291 42.4148 32.4657ZM52.6922 40.9243C53.5276 40.9243 54.2354 40.8431 54.8155 40.6806C55.4189 40.495 55.8598 40.3209 56.1382 40.1585V35.6681L52.2744 36.051C51.207 36.1439 50.3948 36.3875 49.8378 36.782C49.3041 37.1533 49.0372 37.7103 49.0372 38.4528C49.0372 39.2186 49.3389 39.822 49.9422 40.2629C50.5456 40.7038 51.4622 40.9243 52.6922 40.9243ZM52.5877 26.4437C54.7459 26.4437 56.4515 26.9195 57.7046 27.8709C58.981 28.7992 59.6191 30.2727 59.6191 32.2917V40.4022C59.6191 40.9359 59.5031 41.3536 59.2711 41.6553C59.039 41.957 58.7141 42.2238 58.2964 42.4559C57.693 42.804 56.904 43.094 55.9294 43.3261C54.9779 43.5814 53.8989 43.709 52.6922 43.709C50.4412 43.709 48.6775 43.2797 47.4012 42.4211C46.1481 41.5392 45.5215 40.2513 45.5215 38.5573C45.5215 37.0257 46.0204 35.8538 47.0183 35.0416C48.0161 34.2062 49.4317 33.7072 51.265 33.5448L56.1382 33.0575V32.2568C56.1382 31.2126 55.8018 30.4584 55.1288 29.9943C54.4558 29.5301 53.5392 29.2981 52.3789 29.2981C51.4506 29.2981 50.5456 29.4257 49.6638 29.681C48.8051 29.9363 48.0394 30.2263 47.3664 30.5512C47.1575 30.3656 46.9719 30.1451 46.8094 29.8898C46.647 29.6114 46.5658 29.3213 46.5658 29.0196C46.5658 28.3002 46.9603 27.7549 47.7493 27.3836C48.399 27.0819 49.1416 26.8499 49.9771 26.6874C50.8357 26.525 51.7059 26.4437 52.5877 26.4437ZM78.93 32.5353V35.9814H75.3446V32.6746C75.3446 31.5143 75.0198 30.6672 74.37 30.1335C73.7202 29.5998 72.85 29.3329 71.7593 29.3329C70.9471 29.3329 70.2161 29.4373 69.5664 29.6462C68.9166 29.855 68.3596 30.0871 67.8955 30.3424V35.9814H64.3102V30.2727C64.3102 29.739 64.4146 29.3097 64.6235 28.9848C64.8555 28.6367 65.2152 28.3118 65.7026 28.0102C66.3523 27.6157 67.1993 27.256 68.2436 26.9311C69.2879 26.6062 70.4598 26.4437 71.7593 26.4437C74.0103 26.4437 75.7624 26.9543 77.0155 27.9753C78.2918 28.9732 78.93 30.4932 78.93 32.5353ZM64.3102 34.1713H67.8955V43.1521C67.7331 43.1985 67.501 43.2565 67.1993 43.3261C66.9209 43.3957 66.6076 43.4305 66.2595 43.4305C65.6097 43.4305 65.1224 43.3029 64.7975 43.0476C64.4726 42.7924 64.3102 42.3747 64.3102 41.7945V34.1713ZM75.3446 34.1713H78.93V43.1521C78.7675 43.1985 78.5355 43.2565 78.2338 43.3261C77.9321 43.3957 77.6188 43.4305 77.2939 43.4305C76.621 43.4305 76.122 43.3029 75.7972 43.0476C75.4955 42.7924 75.3446 42.3747 75.3446 41.7945V34.1713ZM90.508 42.6647C89.1389 42.6647 87.8742 42.4095 86.7139 41.8989C85.5768 41.3652 84.6601 40.5066 83.9639 39.3231C83.2678 38.1164 82.9197 36.5384 82.9197 34.5891C82.9197 32.8022 83.2678 31.3054 83.9639 30.0987C84.6601 28.892 85.6232 27.9869 86.8531 27.3836C88.1062 26.757 89.545 26.4437 91.1694 26.4437C92.3065 26.4437 93.3508 26.5946 94.3022 26.8963C95.2537 27.1747 96.0311 27.5112 96.6344 27.9057C97.0057 28.161 97.3074 28.4511 97.5394 28.776C97.7715 29.1008 97.8875 29.4953 97.8875 29.9595V40.7502H94.3718V30.1683C94.0237 29.9595 93.5944 29.7738 93.0839 29.6114C92.5734 29.4257 91.9584 29.3329 91.239 29.3329C89.8235 29.3329 88.6748 29.7738 87.7929 30.6556C86.9343 31.5143 86.505 32.8138 86.505 34.5542C86.505 36.5035 86.9343 37.8727 87.7929 38.6617C88.6516 39.4507 89.719 39.8452 90.9954 39.8452C91.9468 39.8452 92.7126 39.6828 93.2928 39.3579C93.8729 39.033 94.3486 38.6849 94.7199 38.3136L94.894 41.3072C94.4995 41.6553 93.9309 41.9686 93.1883 42.247C92.4457 42.5255 91.5523 42.6647 90.508 42.6647ZM94.4066 43.5002V39.9844H97.8875V43.6742C97.8875 45.229 97.5394 46.4821 96.8433 47.4336C96.1471 48.4082 95.1956 49.116 93.9889 49.5569C92.8054 49.9978 91.4711 50.2183 89.9859 50.2183C88.8024 50.2183 87.7813 50.0907 86.9227 49.8354C86.0641 49.6033 85.4491 49.3829 85.0778 49.174C84.3352 48.7331 83.9639 48.1646 83.9639 47.4684C83.9639 47.0739 84.0452 46.7374 84.2076 46.4589C84.3933 46.2036 84.6021 46.0064 84.8342 45.8672C85.3679 46.2385 86.0757 46.5633 86.9575 46.8418C87.8393 47.1435 88.7792 47.2943 89.777 47.2943C91.2622 47.2943 92.3993 46.9927 93.1883 46.3893C94.0005 45.7859 94.4066 44.8229 94.4066 43.5002ZM102.446 21.9534C102.446 21.35 102.654 20.8511 103.072 20.4566C103.49 20.0621 104 19.8649 104.604 19.8649C105.254 19.8649 105.776 20.0621 106.17 20.4566C106.565 20.8511 106.762 21.35 106.762 21.9534C106.762 22.5335 106.565 23.0325 106.17 23.4502C105.776 23.8447 105.254 24.0419 104.604 24.0419C104 24.0419 103.49 23.8447 103.072 23.4502C102.654 23.0325 102.446 22.5335 102.446 21.9534ZM102.829 34.0321H106.414V43.1521C106.251 43.1985 106.019 43.2565 105.718 43.3261C105.439 43.3957 105.126 43.4305 104.778 43.4305C104.128 43.4305 103.641 43.3029 103.316 43.0476C102.991 42.7924 102.829 42.3747 102.829 41.7945V34.0321ZM106.414 35.8074H102.829V27.0355C102.991 26.9891 103.223 26.9427 103.525 26.8963C103.826 26.8266 104.151 26.7918 104.499 26.7918C105.149 26.7918 105.625 26.9195 105.927 27.1747C106.251 27.4068 106.414 27.8245 106.414 28.4279V35.8074ZM114.349 30.7601V27.9405H121.52C121.613 28.0566 121.694 28.2422 121.764 28.4975C121.857 28.7527 121.903 29.0312 121.903 29.3329C121.903 29.8202 121.787 30.1799 121.555 30.412C121.346 30.644 121.033 30.7601 120.615 30.7601H114.349ZM114.941 26.026V30.3075H111.46V25.852C111.46 24.4364 111.739 23.2877 112.296 22.4059C112.853 21.5241 113.63 20.8743 114.628 20.4566C115.626 20.0389 116.786 19.83 118.109 19.83C119.524 19.83 120.615 20.0157 121.381 20.387C122.147 20.7583 122.53 21.2688 122.53 21.9186C122.53 22.2203 122.46 22.4987 122.321 22.754C122.205 23.0093 122.054 23.2297 121.868 23.4154C121.451 23.2065 120.94 23.0441 120.337 22.928C119.756 22.7888 119.165 22.7192 118.561 22.7192C117.262 22.7192 116.334 22.9745 115.777 23.485C115.22 23.9955 114.941 24.8425 114.941 26.026ZM111.46 28.95H115.046V43.1521C114.883 43.1985 114.651 43.2565 114.349 43.3261C114.071 43.3957 113.758 43.4305 113.41 43.4305C112.76 43.4305 112.273 43.3029 111.948 43.0476C111.623 42.7924 111.46 42.3747 111.46 41.7945V28.95ZM128.359 39.4623C127.964 38.6965 127.512 37.7103 127.001 36.5035C126.491 35.2968 125.957 33.9277 125.4 32.3961C124.843 30.8645 124.309 29.2285 123.799 27.488C123.984 27.2328 124.24 27.0239 124.565 26.8615C124.913 26.699 125.284 26.6178 125.678 26.6178C126.189 26.6178 126.607 26.7338 126.932 26.9659C127.256 27.1979 127.512 27.6157 127.697 28.219C128.324 30.0987 128.985 31.9552 129.681 33.7884C130.378 35.6217 131.12 37.513 131.909 39.4623H132.048C132.513 38.4645 132.988 37.2577 133.476 35.8422C133.963 34.4266 134.427 32.9414 134.868 31.3866C135.332 29.8318 135.703 28.3582 135.982 26.9659C136.214 26.8731 136.458 26.7918 136.713 26.7222C136.968 26.6526 137.235 26.6178 137.513 26.6178C138.024 26.6178 138.442 26.7338 138.767 26.9659C139.115 27.1979 139.289 27.5692 139.289 28.0798C139.289 28.5439 139.184 29.2285 138.975 30.1335C138.79 31.0153 138.511 32.0248 138.14 33.1619C137.792 34.299 137.386 35.4941 136.922 36.7472C136.481 37.9771 135.993 39.1838 135.46 40.3673C134.926 41.5508 134.392 42.6183 133.859 43.5698C132.745 45.6119 131.712 47.1667 130.761 48.2342C129.832 49.3016 128.95 49.8354 128.115 49.8354C127.465 49.8354 126.955 49.6497 126.583 49.2784C126.212 48.9304 125.992 48.501 125.922 47.9905C126.409 47.5496 126.955 46.9927 127.558 46.3197C128.161 45.6699 128.742 44.9505 129.299 44.1615C129.879 43.3957 130.354 42.6647 130.726 41.9686C130.331 41.8525 129.948 41.6321 129.577 41.3072C129.206 40.9591 128.8 40.3441 128.359 39.4623Z" fill="#3B4E5F"/>
<path opacity="0.5" d="M144.4 45.08L142.78 45.06V38.72C142.78 38.4533 142.86 38.24 143.02 38.08C143.18 37.92 143.393 37.84 143.66 37.84C143.807 37.84 143.953 37.86 144.1 37.9C144.247 37.94 144.347 37.9733 144.4 38V45.08ZM143.66 44.76V43.38H149.6C149.64 43.4467 149.68 43.54 149.72 43.66C149.76 43.7667 149.78 43.8867 149.78 44.02C149.78 44.2333 149.727 44.4133 149.62 44.56C149.513 44.6933 149.36 44.76 149.16 44.76H143.66ZM143.66 39.22V37.84H150.3C150.34 37.8933 150.38 37.98 150.42 38.1C150.46 38.22 150.48 38.3467 150.48 38.48C150.48 38.6933 150.427 38.8733 150.32 39.02C150.213 39.1533 150.06 39.22 149.86 39.22H143.66ZM142.78 42.88H144.42V49.98C144.353 49.9933 144.247 50.0133 144.1 50.04C143.967 50.08 143.827 50.1 143.68 50.1C143.387 50.1 143.16 50.04 143 49.92C142.853 49.8 142.78 49.62 142.78 49.38V42.88ZM160.807 45.38C160.807 46.3667 160.62 47.2267 160.247 47.96C159.873 48.6933 159.347 49.26 158.667 49.66C157.987 50.06 157.187 50.26 156.267 50.26C155.347 50.26 154.54 50.06 153.847 49.66C153.167 49.26 152.64 48.6933 152.267 47.96C151.893 47.2267 151.707 46.3667 151.707 45.38C151.707 44.38 151.893 43.52 152.267 42.8C152.653 42.0667 153.187 41.5 153.867 41.1C154.56 40.7 155.36 40.5 156.267 40.5C157.173 40.5 157.967 40.7 158.647 41.1C159.327 41.5 159.853 42.0667 160.227 42.8C160.613 43.52 160.807 44.38 160.807 45.38ZM156.267 41.82C155.373 41.82 154.66 42.14 154.127 42.78C153.607 43.4067 153.347 44.2733 153.347 45.38C153.347 46.5 153.6 47.3733 154.107 48C154.627 48.6267 155.347 48.94 156.267 48.94C157.173 48.94 157.88 48.6267 158.387 48C158.907 47.36 159.167 46.4867 159.167 45.38C159.167 44.2733 158.907 43.4067 158.387 42.78C157.88 42.14 157.173 41.82 156.267 41.82ZM164.881 42.48V45.64H163.281V42.6C163.281 42.2933 163.335 42.0533 163.441 41.88C163.561 41.6933 163.755 41.5133 164.021 41.34C164.368 41.1133 164.841 40.92 165.441 40.76C166.041 40.5867 166.708 40.5 167.441 40.5C168.508 40.5 169.041 40.7667 169.041 41.3C169.041 41.4333 169.021 41.56 168.981 41.68C168.941 41.7867 168.888 41.88 168.821 41.96C168.688 41.9333 168.515 41.9067 168.301 41.88C168.088 41.8533 167.875 41.84 167.661 41.84C167.048 41.84 166.508 41.9067 166.041 42.04C165.575 42.16 165.188 42.3067 164.881 42.48ZM163.281 44.72L164.881 44.96V49.96C164.815 49.9867 164.715 50.0133 164.581 50.04C164.448 50.08 164.301 50.1 164.141 50.1C163.861 50.1 163.648 50.0467 163.501 49.94C163.355 49.82 163.281 49.6333 163.281 49.38V44.72ZM179.382 39.1H179.302C179.102 39.66 178.862 40.3267 178.582 41.1C178.315 41.8733 178.035 42.6733 177.742 43.5C177.462 44.3133 177.195 45.0733 176.942 45.78L176.842 46.08C176.762 46.32 176.662 46.62 176.542 46.98C176.422 47.34 176.295 47.72 176.162 48.12C176.029 48.5067 175.902 48.8733 175.782 49.22C175.662 49.5533 175.569 49.8267 175.502 50.04C175.409 50.08 175.309 50.1067 175.202 50.12C175.109 50.1467 174.989 50.16 174.842 50.16C174.629 50.16 174.435 50.1067 174.262 50C174.102 49.88 174.022 49.6933 174.022 49.44C174.022 49.32 174.042 49.2 174.082 49.08C174.122 48.9467 174.169 48.8067 174.222 48.66C174.382 48.2067 174.575 47.6533 174.802 47C175.042 46.3467 175.302 45.6333 175.582 44.86C175.862 44.0867 176.155 43.2933 176.462 42.48C176.769 41.6667 177.069 40.8733 177.362 40.1C177.655 39.3267 177.929 38.62 178.182 37.98C178.289 37.9267 178.449 37.8733 178.662 37.82C178.875 37.7667 179.095 37.74 179.322 37.74C179.589 37.74 179.842 37.78 180.082 37.86C180.335 37.94 180.495 38.0733 180.562 38.26C180.882 39.0333 181.222 39.9133 181.582 40.9C181.955 41.8733 182.329 42.8933 182.702 43.96C183.075 45.0133 183.429 46.04 183.762 47.04C184.109 48.04 184.415 48.9467 184.682 49.76C184.589 49.88 184.462 49.9733 184.302 50.04C184.155 50.12 183.989 50.16 183.802 50.16C183.549 50.16 183.355 50.1067 183.222 50C183.089 49.88 182.975 49.6867 182.882 49.42L181.782 46.16L181.622 45.6C181.355 44.7867 181.075 43.9667 180.782 43.14C180.502 42.3133 180.235 41.5467 179.982 40.84C179.742 40.1333 179.542 39.5533 179.382 39.1ZM176.062 46.76L176.582 45.42H182.162L182.482 46.76H176.062ZM188.358 42.48V45.64H186.758V42.6C186.758 42.2933 186.811 42.0533 186.918 41.88C187.038 41.6933 187.231 41.5133 187.498 41.34C187.844 41.1133 188.318 40.92 188.918 40.76C189.518 40.5867 190.184 40.5 190.918 40.5C191.984 40.5 192.518 40.7667 192.518 41.3C192.518 41.4333 192.498 41.56 192.458 41.68C192.418 41.7867 192.364 41.88 192.298 41.96C192.164 41.9333 191.991 41.9067 191.778 41.88C191.564 41.8533 191.351 41.84 191.138 41.84C190.524 41.84 189.984 41.9067 189.518 42.04C189.051 42.16 188.664 42.3067 188.358 42.48ZM186.758 44.72L188.358 44.96V49.96C188.291 49.9867 188.191 50.0133 188.058 50.04C187.924 50.08 187.778 50.1 187.618 50.1C187.338 50.1 187.124 50.0467 186.978 49.94C186.831 49.82 186.758 49.6333 186.758 49.38V44.72ZM194.415 44.72H196.015V47.48C196.015 48.0133 196.168 48.3933 196.475 48.62C196.781 48.8333 197.201 48.94 197.735 48.94C197.961 48.94 198.215 48.9 198.495 48.82C198.775 48.74 199.008 48.6467 199.195 48.54C199.275 48.62 199.348 48.72 199.415 48.84C199.481 48.96 199.515 49.1 199.515 49.26C199.515 49.5533 199.341 49.7933 198.995 49.98C198.648 50.1667 198.168 50.26 197.555 50.26C196.621 50.26 195.861 50.0533 195.275 49.64C194.701 49.2267 194.415 48.54 194.415 47.58V44.72ZM195.235 42.28V40.96H199.295C199.335 41.0133 199.375 41.1 199.415 41.22C199.455 41.34 199.475 41.4667 199.475 41.6C199.475 41.8133 199.421 41.98 199.315 42.1C199.208 42.22 199.061 42.28 198.875 42.28H195.235ZM196.015 45.32H194.415V38.08C194.481 38.0533 194.581 38.0267 194.715 38C194.861 37.96 195.015 37.94 195.175 37.94C195.455 37.94 195.661 38 195.795 38.12C195.941 38.2267 196.015 38.4067 196.015 38.66V45.32ZM201.696 37.84C201.696 37.56 201.796 37.3267 201.996 37.14C202.196 36.94 202.443 36.84 202.736 36.84C203.043 36.84 203.289 36.94 203.476 37.14C203.663 37.3267 203.756 37.56 203.756 37.84C203.756 38.12 203.663 38.36 203.476 38.56C203.289 38.7467 203.043 38.84 202.736 38.84C202.443 38.84 202.196 38.7467 201.996 38.56C201.796 38.36 201.696 38.12 201.696 37.84ZM201.936 44.72H203.536V49.96C203.469 49.9867 203.369 50.0133 203.236 50.04C203.103 50.08 202.956 50.1 202.796 50.1C202.516 50.1 202.303 50.0467 202.156 49.94C202.009 49.82 201.936 49.6333 201.936 49.38V44.72ZM203.536 45.5H201.936V40.8C202.003 40.7733 202.103 40.7467 202.236 40.72C202.383 40.68 202.536 40.66 202.696 40.66C202.976 40.66 203.183 40.72 203.316 40.84C203.463 40.9467 203.536 41.1333 203.536 41.4V45.5ZM213.18 47.54C213.18 48.3933 212.867 49.06 212.24 49.54C211.613 50.02 210.707 50.26 209.52 50.26C208.507 50.26 207.68 50.1067 207.04 49.8C206.4 49.48 206.08 49.1333 206.08 48.76C206.08 48.6 206.12 48.4467 206.2 48.3C206.293 48.14 206.427 48.0133 206.6 47.92C206.96 48.1733 207.38 48.4067 207.86 48.62C208.34 48.8333 208.887 48.94 209.5 48.94C210.887 48.94 211.58 48.4733 211.58 47.54C211.58 47.1533 211.46 46.84 211.22 46.6C210.993 46.3467 210.653 46.1667 210.2 46.06L208.54 45.62C207.727 45.42 207.133 45.1133 206.76 44.7C206.387 44.2733 206.2 43.7467 206.2 43.12C206.2 42.4133 206.487 41.8 207.06 41.28C207.633 40.76 208.507 40.5 209.68 40.5C210.307 40.5 210.853 40.5667 211.32 40.7C211.787 40.82 212.147 40.9867 212.4 41.2C212.667 41.4 212.8 41.62 212.8 41.86C212.8 42.0333 212.753 42.1867 212.66 42.32C212.58 42.4533 212.467 42.5533 212.32 42.62C212.16 42.5133 211.953 42.4 211.7 42.28C211.46 42.1467 211.173 42.04 210.84 41.96C210.507 41.8667 210.14 41.82 209.74 41.82C209.153 41.82 208.68 41.9333 208.32 42.16C207.96 42.3867 207.78 42.7067 207.78 43.12C207.78 43.4133 207.88 43.6733 208.08 43.9C208.293 44.1133 208.627 44.2733 209.08 44.38L210.46 44.72C211.367 44.9333 212.047 45.2733 212.5 45.74C212.953 46.1933 213.18 46.7933 213.18 47.54ZM215.625 44.72H217.225V47.48C217.225 48.0133 217.379 48.3933 217.685 48.62C217.992 48.8333 218.412 48.94 218.945 48.94C219.172 48.94 219.425 48.9 219.705 48.82C219.985 48.74 220.219 48.6467 220.405 48.54C220.485 48.62 220.559 48.72 220.625 48.84C220.692 48.96 220.725 49.1 220.725 49.26C220.725 49.5533 220.552 49.7933 220.205 49.98C219.859 50.1667 219.379 50.26 218.765 50.26C217.832 50.26 217.072 50.0533 216.485 49.64C215.912 49.2267 215.625 48.54 215.625 47.58V44.72ZM216.445 42.28V40.96H220.505C220.545 41.0133 220.585 41.1 220.625 41.22C220.665 41.34 220.685 41.4667 220.685 41.6C220.685 41.8133 220.632 41.98 220.525 42.1C220.419 42.22 220.272 42.28 220.085 42.28H216.445ZM217.225 45.32H215.625V38.08C215.692 38.0533 215.792 38.0267 215.925 38C216.072 37.96 216.225 37.94 216.385 37.94C216.665 37.94 216.872 38 217.005 38.12C217.152 38.2267 217.225 38.4067 217.225 38.66V45.32ZM229.704 47.54C229.704 48.3933 229.39 49.06 228.764 49.54C228.137 50.02 227.23 50.26 226.044 50.26C225.03 50.26 224.204 50.1067 223.564 49.8C222.924 49.48 222.604 49.1333 222.604 48.76C222.604 48.6 222.644 48.4467 222.724 48.3C222.817 48.14 222.95 48.0133 223.124 47.92C223.484 48.1733 223.904 48.4067 224.384 48.62C224.864 48.8333 225.41 48.94 226.024 48.94C227.41 48.94 228.104 48.4733 228.104 47.54C228.104 47.1533 227.984 46.84 227.744 46.6C227.517 46.3467 227.177 46.1667 226.724 46.06L225.064 45.62C224.25 45.42 223.657 45.1133 223.284 44.7C222.91 44.2733 222.724 43.7467 222.724 43.12C222.724 42.4133 223.01 41.8 223.584 41.28C224.157 40.76 225.03 40.5 226.204 40.5C226.83 40.5 227.377 40.5667 227.844 40.7C228.31 40.82 228.67 40.9867 228.924 41.2C229.19 41.4 229.324 41.62 229.324 41.86C229.324 42.0333 229.277 42.1867 229.184 42.32C229.104 42.4533 228.99 42.5533 228.844 42.62C228.684 42.5133 228.477 42.4 228.224 42.28C227.984 42.1467 227.697 42.04 227.364 41.96C227.03 41.8667 226.664 41.82 226.264 41.82C225.677 41.82 225.204 41.9333 224.844 42.16C224.484 42.3867 224.304 42.7067 224.304 43.12C224.304 43.4133 224.404 43.6733 224.604 43.9C224.817 44.1133 225.15 44.2733 225.604 44.38L226.984 44.72C227.89 44.9333 228.57 45.2733 229.024 45.74C229.477 46.1933 229.704 46.7933 229.704 47.54Z" fill="#3B4E5F"/>
</svg>
