<svg width="24" height="24" viewBox="0 0 24 24" fill="none" xmlns="http://www.w3.org/2000/svg">
<g opacity="0.5">
<path d="M9 22H15C20 22 22 20 22 15V9C22 4 20 2 15 2H9C4 2 2 4 2 9V15C2 20 4 22 9 22Z" stroke="white" stroke-linecap="round" stroke-linejoin="round"/>
<path d="M9.10156 12V10.52C9.10156 8.60999 10.4516 7.83999 12.1016 8.78999L13.3816 9.52999L14.6616 10.27C16.3116 11.22 16.3116 12.78 14.6616 13.73L13.3816 14.47L12.1016 15.21C10.4516 16.16 9.10156 15.38 9.10156 13.48V12Z" stroke="white" stroke-miterlimit="10" stroke-linecap="round" stroke-linejoin="round"/>
</g>
</svg>
