<svg width="18" height="18" viewBox="0 0 18 18" fill="none" xmlns="http://www.w3.org/2000/svg">
<path d="M16.1702 8.05501L15.1502 6.87001C14.9552 6.64501 14.7977 6.22501 14.7977 5.92501V4.65001C14.7977 3.85501 14.1452 3.20251 13.3502 3.20251H12.0752C11.7827 3.20251 11.3552 3.04501 11.1302 2.85001L9.94516 1.83001C9.42766 1.38751 8.58016 1.38751 8.05516 1.83001L6.87766 2.85751C6.65266 3.04501 6.22516 3.20251 5.93266 3.20251H4.63516C3.84016 3.20251 3.18766 3.85501 3.18766 4.65001V5.93251C3.18766 6.22501 3.03016 6.64501 2.84266 6.87001L1.83016 8.06251C1.39516 8.58001 1.39516 9.42001 1.83016 9.93751L2.84266 11.13C3.03016 11.355 3.18766 11.775 3.18766 12.0675V13.35C3.18766 14.145 3.84016 14.7975 4.63516 14.7975H5.93266C6.22516 14.7975 6.65266 14.955 6.87766 15.15L8.06266 16.17C8.58016 16.6125 9.42766 16.6125 9.95266 16.17L11.1377 15.15C11.3627 14.955 11.7827 14.7975 12.0827 14.7975H13.3577C14.1527 14.7975 14.8052 14.145 14.8052 13.35V12.075C14.8052 11.7825 14.9627 11.355 15.1577 11.13L16.1777 9.94501C16.6127 9.42751 16.6127 8.57251 16.1702 8.05501ZM12.1202 7.58251L8.49766 11.205C8.39266 11.31 8.25016 11.37 8.10016 11.37C7.95016 11.37 7.80766 11.31 7.70266 11.205L5.88766 9.39001C5.67016 9.17251 5.67016 8.81251 5.88766 8.59501C6.10516 8.37751 6.46516 8.37751 6.68266 8.59501L8.10016 10.0125L11.3252 6.78751C11.5427 6.57001 11.9027 6.57001 12.1202 6.78751C12.3377 7.00501 12.3377 7.36501 12.1202 7.58251Z" fill="#FF0055"/>
</svg>
