<svg width="24" height="24" viewBox="0 0 24 24" fill="none" xmlns="http://www.w3.org/2000/svg">
<rect x="0.5" y="0.5" width="23" height="23" rx="4.5" stroke="#3B4E5F"/>
<g opacity="0.8" clip-path="url(#clip0_2408_1168)">
<path d="M15.2103 5H8.78967C6.70001 5 5 6.70001 5 8.78967V15.2104C5 17.3 6.70001 19 8.78967 19H15.2104C17.3 19 19 17.3 19 15.2104V8.78967C19 6.70001 17.3 5 15.2103 5V5ZM12 15.828C9.88918 15.828 8.17198 14.1108 8.17198 12C8.17198 9.88918 9.88918 8.17198 12 8.17198C14.1108 8.17198 15.828 9.88918 15.828 12C15.828 14.1108 14.1108 15.828 12 15.828ZM15.9195 9.07475C15.2958 9.07475 14.7884 8.56739 14.7884 7.94361C14.7884 7.31983 15.2958 6.81237 15.9195 6.81237C16.5433 6.81237 17.0508 7.31983 17.0508 7.94361C17.0508 8.56739 16.5433 9.07475 15.9195 9.07475Z" fill="#3B4E5F"/>
<path d="M11.9999 8.99316C10.3418 8.99316 8.99268 10.3422 8.99268 12.0004C8.99268 13.6586 10.3418 15.0077 11.9999 15.0077C13.6582 15.0077 15.0072 13.6586 15.0072 12.0004C15.0072 10.3422 13.6582 8.99316 11.9999 8.99316Z" fill="#3B4E5F"/>
<path d="M15.9193 7.63281C15.7482 7.63281 15.6089 7.77209 15.6089 7.94321C15.6089 8.11432 15.7482 8.2536 15.9193 8.2536C16.0905 8.2536 16.2298 8.11442 16.2298 7.94321C16.2298 7.77199 16.0905 7.63281 15.9193 7.63281Z" fill="#3B4E5F"/>
</g>
<defs>
<clipPath id="clip0_2408_1168">
<rect width="14" height="14" fill="white" transform="translate(5 5)"/>
</clipPath>
</defs>
</svg>
