<svg width="24" height="24" viewBox="0 0 24 24" fill="none" xmlns="http://www.w3.org/2000/svg">
<rect x="0.5" y="0.5" width="23" height="23" rx="4.5" stroke="#3B4E5F"/>
<g opacity="0.8">
<path d="M18.2852 8.7192C18.134 8.15692 17.6906 7.71368 17.1284 7.56227C16.1014 7.28125 11.993 7.28125 11.993 7.28125C11.993 7.28125 7.88479 7.28125 6.85772 7.55162C6.30633 7.70286 5.8522 8.157 5.70095 8.7192C5.43066 9.74619 5.43066 11.876 5.43066 11.876C5.43066 11.876 5.43066 14.0166 5.70095 15.0329C5.85236 15.5951 6.29552 16.0383 6.8578 16.1897C7.89561 16.4708 11.9932 16.4708 11.9932 16.4708C11.9932 16.4708 16.1014 16.4708 17.1284 16.2005C17.6907 16.0491 18.134 15.6059 18.2854 15.0437C18.5556 14.0166 18.5556 11.8869 18.5556 11.8869C18.5556 11.8869 18.5664 9.74619 18.2852 8.7192ZM10.685 13.8437V9.90841L14.1013 11.876L10.685 13.8437Z" fill="#3B4E5F"/>
</g>
</svg>
