<svg width="24" height="24" viewBox="0 0 24 24" fill="none" xmlns="http://www.w3.org/2000/svg">
<path d="M12 15C12 15.5304 11.7893 16.0391 11.4142 16.4142C11.0391 16.7893 10.5304 17 10 17C9.46957 17 8.96086 16.7893 8.58579 16.4142C8.21071 16.0391 8 15.5304 8 15C8 14.4696 8.21071 13.9609 8.58579 13.5858C8.96086 13.2107 9.46957 13 10 13C10.5304 13 11.0391 13.2107 11.4142 13.5858C11.7893 13.9609 12 14.4696 12 15ZM12 15V9" stroke="#3B4E5F" stroke-width="1.5"/>
<path d="M14.058 11.0299L12.742 10.3709C12.6199 10.3164 12.5028 10.2515 12.392 10.1769C12.197 10.0274 12.0639 9.81129 12.018 9.56988C12 9.47688 12 9.37488 12 9.17088C12 8.68488 12 8.44288 12.06 8.27788C12.1367 8.06597 12.2827 7.88617 12.4744 7.76764C12.6661 7.64912 12.8922 7.59881 13.116 7.62488C13.29 7.64488 13.507 7.75388 13.942 7.97088L15.258 8.62888C15.441 8.72088 15.532 8.76588 15.608 8.82388C15.8028 8.97314 15.9359 9.18883 15.982 9.42988C16 9.52288 16 9.62488 16 9.82988C16 10.3149 16 10.5579 15.94 10.7229C15.8631 10.9346 15.717 11.1142 15.5254 11.2325C15.3337 11.3509 15.1077 11.401 14.884 11.3749C14.71 11.3549 14.493 11.2469 14.058 11.0299Z" stroke="#3B4E5F" stroke-width="1.5" stroke-linecap="round"/>
<path d="M14 21.8C13.354 21.931 12.685 22 12 22C6.477 22 2 17.523 2 12C2 6.477 6.477 2 12 2C17.523 2 22 6.477 22 12C22 12.685 21.931 13.354 21.8 14" stroke="#3B4E5F" stroke-width="1.5" stroke-linecap="round"/>
<path d="M18 22V15M18 15L20.5 17.5M18 15L15.5 17.5" stroke="#3B4E5F" stroke-width="1.5" stroke-linecap="round" stroke-linejoin="round"/>
</svg>
