<svg width="42" height="43" viewBox="0 0 42 43" fill="none" xmlns="http://www.w3.org/2000/svg">
<g opacity="0.4">
<path fill-rule="evenodd" clip-rule="evenodd" d="M5.25 7.24264V36.5681C5.25 38.7036 6.98117 40.4348 9.11667 40.4348H32.8833C35.0188 40.4348 36.75 38.7036 36.75 36.5681V13.8937C36.75 13.2101 36.4784 12.5544 35.995 12.071L28.055 4.13099C27.5716 3.64756 26.9159 3.37598 26.2322 3.37598H9.11667C6.98117 3.37598 5.25 5.10714 5.25 7.24264ZM34.0107 14.6993L24.8558 5.54443C24.4583 5.14691 23.7786 5.42846 23.7786 5.99063V13.8835C23.7786 14.929 24.6261 15.7766 25.6716 15.7766H33.5645C34.1267 15.7766 34.4082 15.0969 34.0107 14.6993ZM21.3937 20.8182H13.5895C13.1154 20.8182 12.6607 21.0065 12.3255 21.3418C11.9903 21.677 11.8019 22.1317 11.8019 22.6058C11.8019 23.0798 11.9903 23.5345 12.3255 23.8697C12.6607 24.205 13.1154 24.3933 13.5895 24.3933H21.3937C21.8678 24.3933 22.3224 24.205 22.6576 23.8697C22.9928 23.5345 23.1812 23.0798 23.1812 22.6058C23.1812 22.1317 22.9928 21.677 22.6576 21.3418C22.3224 21.0065 21.8678 20.8182 21.3937 20.8182ZM27.9335 28.448H13.5895C13.1125 28.448 12.655 28.6375 12.3178 28.9747C11.9805 29.312 11.791 29.7694 11.791 30.2464C11.791 30.7234 11.9805 31.1808 12.3178 31.5181C12.655 31.8554 13.1125 32.0449 13.5895 32.0449H27.9335C28.4104 32.0449 28.8678 31.8554 29.2051 31.5181C29.5424 31.1808 29.7319 30.7234 29.7319 30.2464C29.7319 29.7694 29.5424 29.312 29.2051 28.9747C28.8678 28.6375 28.4104 28.448 27.9335 28.448Z" fill="#3B4E5F"/>
</g>
</svg>
